<svg xmlns="http://www.w3.org/2000/svg" viewBox="0 0 1200 400" preserveAspectRatio="none">
  <path d="M0,400 L0,300 C150,300 200,280 250,220 L270,100 L280,100 L300,220 C350,280 450,280 500,220 L520,100 L530,100 L550,220 C600,280 700,280 750,220 L770,100 L780,100 L800,220 C850,280 950,280 1000,220 L1020,100 L1030,100 L1050,220 C1100,280 1150,300 1200,300 L1200,400 Z" fill="#4A90D9" opacity="0.1" />
  <!-- Bridge pillars -->
  <rect x="260" y="80" width="20" height="220" fill="#4A90D9" opacity="0.2" />
  <rect x="510" y="80" width="20" height="220" fill="#4A90D9" opacity="0.2" />
  <rect x="760" y="80" width="20" height="220" fill="#4A90D9" opacity="0.2" />
  <rect x="1010" y="80" width="20" height="220" fill="#4A90D9" opacity="0.2" />
  <!-- Cables -->
  <path d="M0,300 L260,80 L510,300 L760,80 L1010,300 L1200,250" fill="none" stroke="#4A90D9" stroke-width="2" opacity="0.15" />
</svg>
